<svg width="1440" height="900" viewBox="0 0 1440 900" fill="none" xmlns="http://www.w3.org/2000/svg">
<path d="M678.519 251.267L537.961 332.518C511.979 347.58 496 375.247 496 405.214V567.755C496 597.82 511.979 625.489 537.961 640.492L678.519 721.781C704.482 736.726 736.498 736.726 762.403 721.781L903.019 640.492C928.924 625.489 944.981 597.82 944.981 567.755V405.214C944.981 375.228 928.924 347.56 903.019 332.518L762.403 251.267C736.498 236.245 704.502 236.245 678.519 251.267Z" fill="#041E77"/>
<path d="M740.992 366.684L812.263 407.855C825.362 415.474 833.516 429.561 833.516 444.72V527.101C833.516 542.28 825.362 556.328 812.263 563.907L740.992 605.137C727.874 612.736 711.642 612.736 698.486 605.137L627.253 563.907C614.077 556.328 606 542.28 606 527.101V444.72C606 429.541 614.096 415.474 627.253 407.855L698.486 366.684C711.642 359.105 727.874 359.105 740.992 366.684Z" fill="white"/>
<path d="M740.992 366.684L812.263 407.855C825.362 415.474 833.516 429.561 833.516 444.72V527.101C833.516 542.28 825.362 556.328 812.263 563.907L740.992 605.137C727.874 612.736 711.642 612.736 698.486 605.137L627.253 563.907C614.077 556.328 606 542.28 606 527.101V444.72C606 429.541 614.096 415.474 627.253 407.855L698.486 366.684C711.642 359.105 727.874 359.105 740.992 366.684Z" stroke="black"/>
</svg>
